HIERARCHY
ROOT Hips
{
	OFFSET 0.00 0.00 0.00
	CHANNELS 6 Xposition Yposition Zposition Xrotation Yrotation Zrotation
	JOINT LeftUpLeg
	{
		OFFSET 3.65156 0.00000 0.00000
		CHANNELS 3 Xrotation Yrotation Zrotation
		JOINT LeftLeg
		{
			OFFSET 0.00000 -15.70501 0.00000
			CHANNELS 3 Xrotation Yrotation Zrotation
			JOINT LeftFoot
			{
				OFFSET 0.00000 -15.41509 0.00000
				CHANNELS 3 Xrotation Yrotation Zrotation
				JOINT LeftToeBase
				{
					OFFSET 0.00000 -1.53202 5.71759
					CHANNELS 3 Xrotation Yrotation Zrotation
					End Site
					{
						OFFSET 0.00000 0.00000 2.95275
					}
				}
			}
		}
	}
	JOINT RightUpLeg
	{
		OFFSET -3.65156 0.00000 0.00000
		CHANNELS 3 Xrotation Yrotation Zrotation
		JOINT RightLeg
		{
			OFFSET 0.00000 -15.70501 0.00000
			CHANNELS 3 Xrotation Yrotation Zrotation
			JOINT RightFoot
			{
				OFFSET 0.00000 -15.41509 0.00000
				CHANNELS 3 Xrotation Yrotation Zrotation
				JOINT RightToeBase
				{
					OFFSET 0.00000 -1.53202 5.71759
					CHANNELS 3 Xrotation Yrotation Zrotation
					End Site
					{
						OFFSET 0.00000 0.00000 2.95275
					}
				}
			}
		}
	}
	JOINT Spine
	{
		OFFSET 0.00000 0.03937 0.00000
		CHANNELS 3 Xrotation Yrotation Zrotation
		JOINT Spine1
		{
			OFFSET 0.00000 10.20120 0.00000
			CHANNELS 3 Xrotation Yrotation Zrotation
			JOINT Neck
			{
				OFFSET 0.00000 7.85680 0.00000
				CHANNELS 3 Xrotation Yrotation Zrotation
				JOINT Head
				{
					OFFSET 0.00000 6.87959 0.00000
					CHANNELS 3 Xrotation Yrotation Zrotation
					End Site
					{
						OFFSET 0.00000 4.52755 0.00000
					}
				}
			}
			JOINT LeftShoulder
			{
				OFFSET 0.00000 7.85680 0.00000
				CHANNELS 3 Xrotation Yrotation Zrotation
				JOINT LeftArm
				{
					OFFSET 6.70743 -0.00002 0.00000
					CHANNELS 3 Xrotation Yrotation Zrotation
					JOINT LeftForeArm
					{
						OFFSET 10.94108 -0.00004 0.00000
						CHANNELS 3 Xrotation Yrotation Zrotation
						JOINT LeftHand
						{
							OFFSET 8.52742 -0.00003 0.00000
							CHANNELS 3 Xrotation Yrotation Zrotation
							JOINT LeftHandThumb
							{
								OFFSET 0.00000 0.00000 0.00000
								CHANNELS 3 Xrotation Yrotation Zrotation
								End Site
								{
									OFFSET 0.00000 0.00000 3.93700
								}
							}
							JOINT L_Wrist_End
							{
								OFFSET 3.93700 -0.00001 0.00000
								CHANNELS 3 Xrotation Yrotation Zrotation
							}
						}
					}
				}
			}
			JOINT RightShoulder
			{
				OFFSET 0.00000 7.85680 0.00000
				CHANNELS 3 Xrotation Yrotation Zrotation
				JOINT RightArm
				{
					OFFSET -6.70743 -0.00002 0.00000
					CHANNELS 3 Xrotation Yrotation Zrotation
					JOINT RightForeArm
					{
						OFFSET -10.94108 -0.00004 0.00000
						CHANNELS 3 Xrotation Yrotation Zrotation
						JOINT RightHand
						{
							OFFSET -8.52742 -0.00003 0.00000
							CHANNELS 3 Xrotation Yrotation Zrotation
							JOINT RightHandThumb
							{
								OFFSET 0.00000 0.00000 0.00000
								CHANNELS 3 Xrotation Yrotation Zrotation
								End Site
								{
									OFFSET 0.00000 0.00000 3.93700
								}
							}
							JOINT R_Wrist_End
							{
								OFFSET -5.39369 -0.00002 0.00000
								CHANNELS 3 Xrotation Yrotation Zrotation
							}
						}
					}
				}
			}
		}
	}
}
MOTION
Frames: 16
Frame Time: 0.033332
 -4.6951 32.9131 -1.9995 -1.2344 -1.0467 -1.6722 -32.3657 -2.2508 10.6085 75.9684 -0.0000 0.0000 -12.1723 -9.2878 -5.9124 4.4586 -0.0000 0.0000 4.6650 -9.3499 3.7494 6.2215 -0.0000 0.0000 -19.6747 0.8548 -3.4057 3.9672 -0.0000 0.0000 -2.2499 3.8401 0.8689 13.4806 2.6276 1.4880 -0.4072 -21.4501 -1.8446 -9.5283 -15.3494 4.7174 19.6425 11.5445 -1.2773 -10.1657 -35.6797 -74.6467 -0.0000 -5.2985 -0.0000 -9.2425 0.6776 -14.9206 -0.0000 0.0000 -0.0000 -0.0000 0.0000 -0.0000 11.8613 -13.0811 4.0977 -39.0780 40.8166 75.3078 -0.0001 21.8478 0.0000 -26.6639 -0.6215 5.0037 -0.0000 0.0000 -0.0000 -0.0000 0.0000 -0.0000
 -4.7531 32.9301 -1.9224 -1.1761 -1.3583 -1.5502 -32.3555 -2.3891 10.0328 77.2214 -0.0000 0.0000 -13.1153 -7.9815 -5.2240 4.5929 -0.0000 0.0000 4.7993 -9.2223 3.7134 6.0360 -0.0000 0.0000 -19.5730 1.0658 -3.4965 3.9690 0.0000 0.0000 -2.3408 3.9589 0.7794 13.3115 2.7367 1.4619 -0.3644 -21.7876 -1.6599 -9.4122 -15.4545 4.6689 19.6670 11.5944 -1.0259 -10.0069 -33.5489 -75.3646 -0.0000 -4.8617 -0.0000 -10.0691 0.8052 -15.5402 -0.0000 -0.0000 0.0000 -0.0000 -0.0000 0.0000 11.7507 -13.2280 3.8757 -39.6837 40.2740 75.6568 -0.0001 22.5776 0.0000 -26.9511 -0.5330 4.8063 -0.0000 -0.0000 0.0000 -0.0000 -0.0000 0.0000
 -4.7905 32.9348 -1.8348 -1.1464 -1.6100 -1.5458 -31.3365 -2.3022 9.5067 76.5735 -0.0000 0.0000 -14.0358 -6.4190 -4.4115 4.5915 0.0000 0.0000 4.9196 -9.3469 3.7578 6.0427 -0.0000 0.0000 -19.5837 1.3812 -3.6064 3.8141 0.0000 0.0000 -2.4448 4.0150 0.7460 13.2232 2.7827 1.4310 -0.4565 -22.0325 -1.5290 -9.3032 -15.5816 4.7663 19.7429 11.6415 -0.8982 -10.2767 -32.1008 -75.8592 -0.0000 -4.5238 -0.0000 -10.8154 0.6479 -15.8136 -0.0000 -0.0000 0.0000 -0.0000 -0.0000 0.0000 11.8248 -13.2113 3.8112 -39.5637 40.2779 75.5967 -0.0001 23.0239 0.0000 -27.1989 -0.5105 5.0654 -0.0000 0.0000 -0.0000 -0.0000 0.0000 -0.0000
 -4.7944 32.9267 -1.7475 -1.0475 -1.6825 -1.6397 -29.4817 -2.1030 8.9138 74.0550 -0.0000 0.0000 -14.7618 -4.0907 -2.9336 4.7250 -0.0000 0.0000 4.7135 -9.3801 3.8287 6.5845 -0.0000 0.0000 -19.8361 1.4427 -3.7858 3.7354 -0.0000 0.0000 -2.5970 3.9812 0.7862 13.0722 2.7485 1.4490 -0.5835 -22.2231 -1.5022 -9.1075 -15.6730 4.8336 19.7255 11.5577 -0.8557 -10.7855 -31.5828 -76.1927 -0.0000 -4.2185 -0.0000 -11.0213 0.4935 -15.6209 -0.0000 -0.0000 0.0000 -0.0000 -0.0000 0.0000 11.9292 -13.2031 3.8131 -38.8184 40.7038 75.4015 -0.0001 22.9585 0.0000 -27.0986 -0.5593 5.1160 -0.0000 0.0000 -0.0000 -0.0000 0.0000 -0.0000
 -4.7730 32.9128 -1.6248 -1.1463 -1.6913 -1.8445 -26.4349 -1.8606 8.4280 69.4231 -0.0000 0.0000 -15.5622 -3.4525 -1.5687 4.8529 -0.0000 0.0000 4.8182 -9.0237 3.9717 7.0080 -0.0000 0.0000 -20.0423 1.1449 -4.0858 3.5100 -0.0000 0.0000 -2.7462 3.9064 0.8684 13.0111 2.6837 1.5250 -0.5737 -22.4439 -1.4378 -8.8535 -15.6059 4.7377 19.7497 11.4165 -0.9391 -11.5947 -31.7622 -76.3324 -0.0000 -4.2855 -0.0000 -10.7253 0.6450 -15.3588 -0.0000 0.0000 -0.0000 -0.0000 0.0000 -0.0000 12.1275 -13.2324 3.9580 -37.5014 41.4224 75.0425 -0.0001 22.4401 0.0000 -27.0195 -0.7776 5.0975 -0.0000 -0.0000 0.0000 -0.0000 -0.0000 0.0000
 -4.7248 32.8867 -1.4860 -1.3168 -1.6589 -2.1331 -22.4547 -1.5214 8.0583 62.7042 -0.0000 0.0000 -15.5208 -4.5791 -1.5300 4.9288 -0.0000 0.0000 4.9834 -9.1946 4.1024 7.6202 -0.0000 0.0000 -20.4635 1.2781 -3.8794 3.4216 0.0000 0.0000 -2.9081 3.7764 0.9293 12.9445 2.5877 1.6926 -0.5370 -22.5785 -1.3506 -8.4238 -15.4633 4.4931 19.6556 11.2984 -1.0386 -12.6170 -32.2505 -76.5111 -0.0000 -4.8241 -0.0000 -10.5762 0.6343 -14.9285 -0.0000 -0.0000 0.0000 -0.0000 -0.0000 0.0000 12.3568 -13.3223 4.1619 -35.9328 41.7100 74.8813 -0.0001 21.3534 0.0000 -26.8793 -0.8126 5.3631 -0.0000 0.0000 -0.0000 -0.0000 0.0000 -0.0000
 -4.6441 32.8431 -1.3362 -1.4875 -1.6817 -2.4630 -17.6656 -0.9035 7.7259 53.9362 -0.0000 0.0000 -13.2657 -6.0605 -3.1198 4.0023 -0.0000 0.0000 4.5487 -9.1286 4.1612 9.3860 0.0000 0.0000 -21.3344 1.1181 -3.9523 3.3602 0.0000 0.0000 -3.1032 3.6095 0.9986 12.8508 2.4602 1.8772 -0.3918 -22.6346 -1.3948 -8.1831 -15.3952 4.4850 19.5913 11.2031 -1.2144 -13.6567 -33.0242 -76.5152 -0.0000 -6.3822 -0.0000 -10.0271 0.5534 -14.4749 -0.0000 0.0000 -0.0000 -0.0000 0.0000 -0.0000 12.6356 -13.4353 4.4230 -34.0462 41.5493 74.8029 -0.0001 20.1077 0.0000 -26.9433 -1.0808 5.5700 -0.0000 -0.0000 0.0000 -0.0000 -0.0000 0.0000
 -4.5308 32.7855 -1.1960 -1.6097 -1.6888 -2.9225 -12.3348 0.2022 7.4370 44.8357 -0.0000 0.0000 -15.4195 -2.9739 -3.5237 -1.5873 0.0000 0.0000 3.7802 -8.5090 4.3025 11.6386 -0.0000 0.0000 -22.2965 0.4250 -4.1835 3.2658 -0.0000 0.0000 -3.3031 3.3323 1.0766 12.7232 2.2546 2.1927 -0.3970 -22.5904 -1.4393 -7.8901 -15.3183 4.3597 19.3577 11.1204 -1.4150 -14.6830 -33.7146 -76.5887 -0.0000 -8.6691 -0.0000 -9.9531 0.2795 -13.8740 -0.0000 -0.0000 0.0000 -0.0000 -0.0000 0.0000 13.0246 -13.5905 4.8016 -31.7740 41.7196 74.4409 -0.0001 18.7033 0.0000 -27.1646 -1.2127 5.9150 -0.0000 0.0000 -0.0000 -0.0000 0.0000 -0.0000
 -4.3773 32.7591 -1.0405 -2.0200 -1.9044 -3.2031 -6.9599 2.3583 7.0953 36.8789 -0.0000 0.0000 -18.9414 -1.2346 -2.4546 -0.2474 0.0000 0.0000 3.0261 -7.9911 4.1057 14.3772 -0.0000 0.0000 -23.1138 0.1241 -4.4383 2.7092 0.0000 0.0000 -3.4303 3.1072 0.9174 12.8616 2.1349 2.5636 -0.1038 -22.4971 -1.4582 -8.0495 -15.2423 4.4517 19.7489 10.9202 -2.0602 -16.4673 -34.9160 -76.3798 -0.0000 -11.0308 -0.0000 -10.8934 -0.3688 -13.5292 -0.0000 0.0000 -0.0000 -0.0000 0.0000 -0.0000 13.4192 -13.6451 5.4923 -28.6281 42.1335 73.2330 -0.0001 17.6343 0.0000 -26.9932 -1.8966 5.8517 -0.0000 0.0000 -0.0000 -0.0000 0.0000 -0.0000
 -4.1413 32.7683 -0.9977 -1.9318 -1.5893 -2.7989 -2.9875 3.1865 5.8950 29.0699 -0.0000 0.0000 -20.1392 -0.3781 -1.9072 2.5968 0.0000 0.0000 0.6760 -6.6074 3.2312 18.6499 -0.0000 0.0000 -23.9167 -1.5891 -4.6029 2.0537 -0.0000 0.0000 -3.5602 2.6866 0.3676 12.7522 1.7626 2.6753 0.0109 -22.3790 -1.5454 -8.0949 -15.1854 4.4994 19.8843 10.4871 -2.6462 -18.5316 -36.2248 -76.1723 -0.0001 -13.4511 -0.0000 -12.1495 -0.6485 -13.4110 -0.0000 -0.0000 0.0000 -0.0000 -0.0000 0.0000 13.8756 -13.9505 6.3103 -25.5194 42.3119 72.0524 -0.0001 16.4482 0.0000 -26.5994 -2.4045 5.9096 -0.0000 0.0000 -0.0000 -0.0000 0.0000 -0.0000
 -3.8813 32.8343 -1.0458 -1.8064 -0.8189 -2.4069 -0.6079 1.7439 4.7487 24.0290 -0.0000 0.0000 -19.7300 0.2294 -1.6288 4.0355 -0.0000 0.0000 -2.5790 -6.3243 2.2773 24.5158 -0.0000 0.0000 -23.7873 -3.0399 -4.3801 0.5644 0.0000 0.0000 -3.5831 2.1576 -0.0280 12.9032 1.2315 2.6287 -0.0250 -22.2970 -1.7006 -8.3103 -15.2436 4.6905 19.7993 9.8965 -3.0122 -21.0838 -38.1602 -76.0635 -0.0001 -15.4690 -0.0000 -13.3326 -0.9760 -13.2935 -0.0000 -0.0000 0.0000 -0.0000 -0.0000 0.0000 14.3955 -14.3765 7.0265 -23.0657 41.4244 71.5509 -0.0001 15.3192 0.0000 -26.1064 -2.7075 5.9367 -0.0000 0.0000 -0.0000 -0.0000 0.0000 -0.0000
 -3.6363 32.9340 -1.1733 -1.8462 -0.2212 -2.1298 1.3534 2.0125 4.2151 19.5104 -0.0000 0.0000 -18.6056 -0.9543 -1.6978 5.1752 -0.0000 0.0000 -6.9669 -6.6972 1.0892 32.3440 -0.0000 0.0000 -22.0571 -3.5199 -3.7457 -2.1683 0.0000 -0.0000 -3.2570 1.7566 -0.3516 13.0222 0.8239 2.5563 0.0071 -22.1500 -1.7578 -8.5866 -15.2393 4.7710 19.3714 9.4023 -2.8174 -24.0165 -40.4751 -76.4690 -0.0001 -17.0700 -0.0000 -12.8425 -0.9956 -13.0352 -0.0000 0.0000 -0.0000 -0.0000 0.0000 -0.0000 14.8063 -14.8669 7.1208 -21.1843 39.9096 72.1249 -0.0001 14.0637 0.0000 -25.8452 -2.8113 6.2421 -0.0000 0.0000 -0.0000 -0.0000 0.0000 -0.0000
 -3.3610 32.9673 -1.3535 -1.7781 0.1609 -1.7790 3.1016 3.9468 3.7189 14.9604 -0.0000 0.0000 -17.5709 -3.4745 -2.2943 6.1517 -0.0000 0.0000 -13.1261 -7.2460 -0.7395 42.5146 -0.0000 0.0000 -18.2814 -2.9423 -2.5339 -6.4878 0.0000 0.0000 -2.8517 1.3927 -0.5815 12.9834 0.4101 2.3586 -0.0387 -21.8772 -1.8542 -8.7971 -15.1159 4.6935 18.6648 9.1774 -2.0816 -26.9740 -41.9501 -77.4276 -0.0001 -19.2481 -0.0000 -11.7586 -0.8745 -12.6616 -0.0000 -0.0000 0.0000 -0.0000 -0.0000 0.0000 14.6464 -15.3215 6.2921 -18.7047 38.7412 73.0682 -0.0001 13.4723 0.0000 -25.5994 -3.6025 6.8975 -0.0000 -0.0000 0.0000 -0.0000 -0.0000 0.0000
 -3.0943 32.8788 -1.5831 -1.4416 0.4683 -1.3534 4.2515 6.1858 2.9882 11.1026 -0.0000 0.0000 -17.2708 -5.8957 -3.5600 7.1866 -0.0000 0.0000 -20.2534 -7.3353 -3.0661 52.7527 -0.0000 0.0000 -13.2466 -1.5932 -0.0459 -7.9788 0.0000 0.0000 -2.5286 1.0198 -0.7881 12.8937 -0.0590 2.0347 -0.2709 -21.5552 -2.0353 -9.1900 -15.0171 4.8377 17.9120 9.0493 -1.0918 -29.7141 -42.3461 -78.3554 -0.0001 -22.1207 -0.0000 -11.0854 -0.9109 -11.8989 -0.0000 -0.0000 0.0000 -0.0000 -0.0000 0.0000 14.3196 -15.7888 5.3905 -16.1762 38.0738 73.8769 -0.0000 13.2554 0.0000 -25.3331 -4.2822 7.8379 -0.0000 -0.0000 0.0000 -0.0000 -0.0000 0.0000
 -2.8422 32.7661 -1.7975 -1.2168 1.0753 -0.3655 5.0016 5.4769 1.4532 8.6994 -0.0000 0.0000 -16.9566 -5.6593 -4.2296 7.7999 -0.0000 0.0000 -26.5335 -6.9080 -5.9340 61.0091 -0.0000 0.0000 -10.1026 -0.0428 1.5363 -1.3362 0.0000 0.0000 -2.4145 0.6468 -1.4179 13.4236 -0.5314 1.6507 -0.6568 -21.4592 -2.3346 -9.7913 -15.1817 5.3108 18.1932 8.6419 -1.1722 -32.8887 -43.0768 -77.7921 -0.0001 -24.7581 -0.0000 -11.8680 -1.4693 -11.4182 -0.0000 0.0000 -0.0000 -0.0000 0.0000 -0.0000 14.5258 -16.2237 5.6065 -13.9105 37.6154 73.5166 -0.0001 13.4029 0.0000 -25.2740 -4.6661 8.2937 -0.0000 0.0000 -0.0000 -0.0000 0.0000 -0.0000
 -2.6991 32.7427 -1.9491 -1.0751 1.9032 0.2595 5.2042 2.9501 0.5121 7.4827 -0.0000 0.0000 -16.3513 -4.1117 -4.2792 7.9662 -0.0000 0.0000 -30.9901 -6.2660 -7.7516 67.0490 -0.0000 0.0000 -11.2816 0.7132 0.4267 1.4934 -0.0000 0.0000 -2.4471 0.3470 -1.8040 14.0380 -0.9143 1.3293 -0.7994 -21.5185 -2.4796 -10.4253 -15.3749 5.5078 18.7571 7.9154 -1.9926 -35.5340 -44.4219 -75.9500 -0.0001 -26.0936 -0.0000 -12.2800 -2.3157 -11.5052 -0.0000 0.0000 -0.0000 -0.0000 0.0000 -0.0000 15.5470 -16.5494 6.9026 -12.2684 36.9806 72.6300 -0.0000 13.2272 0.0000 -25.4972 -4.2400 7.9477 -0.0000 -0.0000 0.0000 -0.0000 -0.0000 0.0000
